<mxfile host="Electron" agent="Mozilla/5.0 (Windows NT 10.0; Win64; x64) AppleWebKit/537.36 (KHTML, like Gecko) draw.io/28.0.6 Chrome/138.0.7204.100 Electron/37.2.3 Safari/537.36" version="28.0.6">
  <diagram id="gKfQR6QMqfabCFEobmAz" name="Page-1">
    <mxGraphModel dx="995" dy="726" grid="1" gridSize="10" guides="1" tooltips="1" connect="1" arrows="1" fold="1" page="1" pageScale="1" pageWidth="1100" pageHeight="850" math="0" shadow="0">
      <root>
        <mxCell id="0" />
        <mxCell id="1" parent="0" />
        <mxCell id="zYWQm6FeYK7ZvlCrXuv9-24" value="" style="rounded=0;whiteSpace=wrap;html=1;dashed=1;dashPattern=8 8;" parent="1" vertex="1">
          <mxGeometry x="280" y="140" width="440" height="500" as="geometry" />
        </mxCell>
        <mxCell id="XGa5Y8sCl0DmdLY9kct8-3" value="&lt;b&gt;&lt;font style=&quot;font-size: 14px;&quot;&gt;Backplane&lt;/font&gt;&lt;/b&gt;" style="rounded=1;whiteSpace=wrap;html=1;fillColor=#66FF66;strokeColor=#6c8ebf;" parent="1" vertex="1">
          <mxGeometry x="800" y="160" width="120" height="480" as="geometry" />
        </mxCell>
        <mxCell id="zYWQm6FeYK7ZvlCrXuv9-20" style="edgeStyle=orthogonalEdgeStyle;rounded=0;orthogonalLoop=1;jettySize=auto;html=1;exitX=1;exitY=0.5;exitDx=0;exitDy=0;entryX=0;entryY=0.25;entryDx=0;entryDy=0;startArrow=classic;startFill=1;" parent="1" source="XGa5Y8sCl0DmdLY9kct8-4" target="XGa5Y8sCl0DmdLY9kct8-5" edge="1">
          <mxGeometry relative="1" as="geometry" />
        </mxCell>
        <mxCell id="XGa5Y8sCl0DmdLY9kct8-4" value="&lt;b&gt;Debug&lt;/b&gt;" style="rounded=1;whiteSpace=wrap;html=1;fillColor=#99FFFF;" parent="1" vertex="1">
          <mxGeometry x="140" y="240" width="100" height="40" as="geometry" />
        </mxCell>
        <mxCell id="XGa5Y8sCl0DmdLY9kct8-5" value="&lt;b&gt;&lt;font style=&quot;font-size: 14px;&quot;&gt;Pi Pico&lt;/font&gt;&lt;/b&gt;" style="rounded=0;whiteSpace=wrap;html=1;fillColor=#FF9999;" parent="1" vertex="1">
          <mxGeometry x="320" y="160" width="200" height="400" as="geometry" />
        </mxCell>
        <mxCell id="XGa5Y8sCl0DmdLY9kct8-6" value="&lt;span style=&quot;font-size: 14px;&quot;&gt;&lt;b&gt;Power&lt;/b&gt;&lt;/span&gt;&lt;div&gt;&lt;span style=&quot;font-size: 14px;&quot;&gt;&lt;b&gt;Filter&lt;/b&gt;&lt;/span&gt;&lt;/div&gt;" style="rounded=0;whiteSpace=wrap;html=1;fillColor=#FFFF99;" parent="1" vertex="1">
          <mxGeometry x="600" y="580" width="80" height="40" as="geometry" />
        </mxCell>
        <mxCell id="CG7hZ_wFSSS8GAl2Qvh1-33" value="&lt;b&gt;&lt;font style=&quot;font-size: 18px;&quot;&gt;RetroComp CPU Module Block Diagram&lt;/font&gt;&lt;/b&gt;" style="text;html=1;align=center;verticalAlign=middle;whiteSpace=wrap;rounded=0;" parent="1" vertex="1">
          <mxGeometry x="320" y="80" width="350" height="30" as="geometry" />
        </mxCell>
        <mxCell id="zYWQm6FeYK7ZvlCrXuv9-3" style="edgeStyle=orthogonalEdgeStyle;rounded=0;orthogonalLoop=1;jettySize=auto;html=1;exitX=1;exitY=0.7;exitDx=0;exitDy=0;entryX=0;entryY=0.75;entryDx=0;entryDy=0;startArrow=classic;startFill=1;exitPerimeter=0;" parent="1" edge="1" source="XGa5Y8sCl0DmdLY9kct8-5">
          <mxGeometry relative="1" as="geometry">
            <mxPoint x="720" y="439" as="sourcePoint" />
            <mxPoint x="800" y="439" as="targetPoint" />
          </mxGeometry>
        </mxCell>
        <mxCell id="zYWQm6FeYK7ZvlCrXuv9-4" value="SPI" style="text;html=1;align=center;verticalAlign=middle;whiteSpace=wrap;rounded=0;" parent="1" vertex="1">
          <mxGeometry x="720" y="409" width="60" height="30" as="geometry" />
        </mxCell>
        <mxCell id="zYWQm6FeYK7ZvlCrXuv9-5" style="edgeStyle=orthogonalEdgeStyle;rounded=0;orthogonalLoop=1;jettySize=auto;html=1;exitX=1.005;exitY=0.598;exitDx=0;exitDy=0;entryX=0;entryY=0.75;entryDx=0;entryDy=0;startArrow=classic;startFill=1;exitPerimeter=0;" parent="1" edge="1" source="XGa5Y8sCl0DmdLY9kct8-5">
          <mxGeometry relative="1" as="geometry">
            <mxPoint x="720" y="399" as="sourcePoint" />
            <mxPoint x="800" y="399" as="targetPoint" />
          </mxGeometry>
        </mxCell>
        <mxCell id="zYWQm6FeYK7ZvlCrXuv9-6" value="I2C" style="text;html=1;align=center;verticalAlign=middle;whiteSpace=wrap;rounded=0;" parent="1" vertex="1">
          <mxGeometry x="720" y="369" width="60" height="30" as="geometry" />
        </mxCell>
        <mxCell id="zYWQm6FeYK7ZvlCrXuv9-9" style="edgeStyle=orthogonalEdgeStyle;rounded=0;orthogonalLoop=1;jettySize=auto;html=1;exitX=1.01;exitY=0.198;exitDx=0;exitDy=0;entryX=0;entryY=0.75;entryDx=0;entryDy=0;exitPerimeter=0;startArrow=classic;startFill=1;endArrow=none;endFill=0;" parent="1" source="XGa5Y8sCl0DmdLY9kct8-5" edge="1">
          <mxGeometry relative="1" as="geometry">
            <mxPoint x="720" y="240" as="sourcePoint" />
            <mxPoint x="800" y="240" as="targetPoint" />
          </mxGeometry>
        </mxCell>
        <mxCell id="zYWQm6FeYK7ZvlCrXuv9-10" value="BusInt" style="text;html=1;align=center;verticalAlign=middle;whiteSpace=wrap;rounded=0;" parent="1" vertex="1">
          <mxGeometry x="720" y="210" width="60" height="30" as="geometry" />
        </mxCell>
        <mxCell id="zYWQm6FeYK7ZvlCrXuv9-11" style="edgeStyle=orthogonalEdgeStyle;rounded=0;orthogonalLoop=1;jettySize=auto;html=1;exitX=1;exitY=0.75;exitDx=0;exitDy=0;entryX=1;entryY=0.303;entryDx=0;entryDy=0;entryPerimeter=0;" parent="1" target="XGa5Y8sCl0DmdLY9kct8-5" edge="1">
          <mxGeometry relative="1" as="geometry">
            <mxPoint x="800" y="279" as="sourcePoint" />
            <mxPoint x="720" y="279" as="targetPoint" />
          </mxGeometry>
        </mxCell>
        <mxCell id="zYWQm6FeYK7ZvlCrXuv9-12" value="BusClk" style="text;html=1;align=center;verticalAlign=middle;whiteSpace=wrap;rounded=0;" parent="1" vertex="1">
          <mxGeometry x="720" y="249" width="60" height="30" as="geometry" />
        </mxCell>
        <mxCell id="zYWQm6FeYK7ZvlCrXuv9-13" style="edgeStyle=orthogonalEdgeStyle;rounded=0;orthogonalLoop=1;jettySize=auto;html=1;exitX=1;exitY=0.75;exitDx=0;exitDy=0;entryX=1;entryY=0.5;entryDx=0;entryDy=0;" parent="1" target="XGa5Y8sCl0DmdLY9kct8-6" edge="1">
          <mxGeometry relative="1" as="geometry">
            <mxPoint x="800" y="599" as="sourcePoint" />
            <mxPoint x="720" y="599" as="targetPoint" />
          </mxGeometry>
        </mxCell>
        <mxCell id="zYWQm6FeYK7ZvlCrXuv9-14" value="Power" style="text;html=1;align=center;verticalAlign=middle;whiteSpace=wrap;rounded=0;" parent="1" vertex="1">
          <mxGeometry x="720" y="569" width="60" height="30" as="geometry" />
        </mxCell>
        <mxCell id="zYWQm6FeYK7ZvlCrXuv9-17" value="&lt;b&gt;Programming&lt;/b&gt;" style="rounded=1;whiteSpace=wrap;html=1;fillColor=#99FFFF;" parent="1" vertex="1">
          <mxGeometry x="140" y="319" width="100" height="40" as="geometry" />
        </mxCell>
        <mxCell id="zYWQm6FeYK7ZvlCrXuv9-18" style="edgeStyle=orthogonalEdgeStyle;rounded=0;orthogonalLoop=1;jettySize=auto;html=1;exitX=1;exitY=0.5;exitDx=0;exitDy=0;entryX=0;entryY=0.448;entryDx=0;entryDy=0;entryPerimeter=0;" parent="1" source="zYWQm6FeYK7ZvlCrXuv9-17" target="XGa5Y8sCl0DmdLY9kct8-5" edge="1">
          <mxGeometry relative="1" as="geometry" />
        </mxCell>
        <mxCell id="zYWQm6FeYK7ZvlCrXuv9-22" style="edgeStyle=orthogonalEdgeStyle;rounded=0;orthogonalLoop=1;jettySize=auto;html=1;exitX=1.015;exitY=0.1;exitDx=0;exitDy=0;entryX=0;entryY=0.75;entryDx=0;entryDy=0;exitPerimeter=0;" parent="1" source="XGa5Y8sCl0DmdLY9kct8-5" edge="1">
          <mxGeometry relative="1" as="geometry">
            <mxPoint x="720" y="200" as="sourcePoint" />
            <mxPoint x="800" y="200" as="targetPoint" />
          </mxGeometry>
        </mxCell>
        <mxCell id="zYWQm6FeYK7ZvlCrXuv9-23" value="SlotSelect (x6)" style="text;html=1;align=center;verticalAlign=middle;whiteSpace=wrap;rounded=0;" parent="1" vertex="1">
          <mxGeometry x="690" y="170" width="110" height="30" as="geometry" />
        </mxCell>
        <mxCell id="LA2ENfRMjuDcyfWbg0MO-1" value="" style="rounded=1;whiteSpace=wrap;html=1;" parent="1" vertex="1">
          <mxGeometry x="350" y="500" width="140" height="38" as="geometry" />
        </mxCell>
        <mxCell id="LA2ENfRMjuDcyfWbg0MO-2" value="System ROM" style="text;html=1;align=center;verticalAlign=middle;whiteSpace=wrap;rounded=0;" parent="1" vertex="1">
          <mxGeometry x="370" y="504" width="100" height="30" as="geometry" />
        </mxCell>
        <mxCell id="LA2ENfRMjuDcyfWbg0MO-3" value="" style="rounded=1;whiteSpace=wrap;html=1;" parent="1" vertex="1">
          <mxGeometry x="350" y="448" width="140" height="38" as="geometry" />
        </mxCell>
        <mxCell id="LA2ENfRMjuDcyfWbg0MO-4" value="System RAM" style="text;html=1;align=center;verticalAlign=middle;whiteSpace=wrap;rounded=0;" parent="1" vertex="1">
          <mxGeometry x="370" y="452" width="100" height="30" as="geometry" />
        </mxCell>
        <mxCell id="4NSqAL3VwVdlQ80FNWPn-1" style="edgeStyle=orthogonalEdgeStyle;rounded=0;orthogonalLoop=1;jettySize=auto;html=1;exitX=0;exitY=0.25;exitDx=0;exitDy=0;entryX=1;entryY=0.4;entryDx=0;entryDy=0;entryPerimeter=0;" edge="1" parent="1" source="XGa5Y8sCl0DmdLY9kct8-3" target="XGa5Y8sCl0DmdLY9kct8-5">
          <mxGeometry relative="1" as="geometry">
            <Array as="points">
              <mxPoint x="800" y="320" />
            </Array>
          </mxGeometry>
        </mxCell>
        <mxCell id="4NSqAL3VwVdlQ80FNWPn-2" value="ModId(x3)" style="text;html=1;align=center;verticalAlign=middle;whiteSpace=wrap;rounded=0;" vertex="1" parent="1">
          <mxGeometry x="700" y="289" width="110" height="30" as="geometry" />
        </mxCell>
      </root>
    </mxGraphModel>
  </diagram>
</mxfile>
